<?xml version="1.0" encoding="UTF-8" standalone="no"?>
<svg
   id="Ebene_1"
   viewBox="0 0 815.821 168.061"
   version="1.1"
   sodipodi:docname="IONOSby1und1_White_RGB.svg"
   width="815.82098"
   height="168.061"
   inkscape:version="1.1 (c4e8f9ed74, 2021-05-24)"
   xmlns:inkscape="http://www.inkscape.org/namespaces/inkscape"
   xmlns:sodipodi="http://sodipodi.sourceforge.net/DTD/sodipodi-0.dtd"
   xmlns="http://www.w3.org/2000/svg"
   xmlns:svg="http://www.w3.org/2000/svg">
  <defs
     id="defs16" />
  <sodipodi:namedview
     id="namedview14"
     pagecolor="#ffffff"
     bordercolor="#666666"
     borderopacity="1.0"
     inkscape:pageshadow="2"
     inkscape:pageopacity="0.0"
     inkscape:pagecheckerboard="0"
     showgrid="false"
     inkscape:zoom="1.4427818"
     inkscape:cx="23.219034"
     inkscape:cy="288.33189"
     inkscape:window-width="3840"
     inkscape:window-height="2123"
     inkscape:window-x="3840"
     inkscape:window-y="0"
     inkscape:window-maximized="1"
     inkscape:current-layer="Ebene_1" />
  <style
     id="style2">
    .st0{fill:#fff}
  </style>
  <g
     id="_x31__x26_1"
     transform="translate(-58.0946,-58.0946)">
    <path
       class="st0"
       d="M 760.5297,112.7153 H 873.9154 V 226.101 H 760.5297 Z"
       id="path4" />
    <path
       d="m 816.0898,188.1429 c 3.2106,0 5.3616,-1.176 7.2123,-2.7134 l -9.7832,-13.012 c -4.58,3.03 -6.4146,5.9857 -6.3306,8.7703 0.1324,4.2417 3.682,6.955 8.9015,6.955 z m 3.9792,-33.9285 c 0,-2.3064 -1.6181,-3.786 -4.1859,-3.786 -2.4902,0 -4.257,1.6379 -4.257,3.8635 0,2.1483 0.6428,3.3208 3.6143,7.1391 3.5238,-2.5455 4.8287,-4.9133 4.8287,-7.2166 z"
       fill="#003d8f"
       id="path6" />
    <path
       d="M 762.392,224.2387 H 872.053 V 114.5777 H 762.392 Z m 76.504,-80.6135 h 18.5687 v 51.621 l -10.3099,0.003 V 151.895 h -8.2589 v -8.2698 z m -30.503,22.1895 c -4.6575,-5.9665 -5.6135,-8.0275 -5.6135,-11.765 0,-6.3638 5.4391,-11.0414 13.1488,-11.0414 7.1446,0 12.2057,4.7582 12.2057,11.2804 0,4.7681 -1.9572,8.3118 -7.981,13.322 l 8.921,12.1041 c 0.7428,-0.672 1.3855,-4.784 1.2531,-8.1244 -0.016,-0.3973 -0.1033,-1.5602 -0.184,-2.8297 h 8.2879 c 0,1.1112 0.1097,2.72 0.1097,3.114 0,6.5223 -1.0206,10.6409 -4.1536,14.6175 l 6.5954,8.7478 h -10.2 l -2.2997,-3.1012 c -3.7595,3.0139 -7.0605,4.1381 -12.393,4.1058 -10.439,-0.0582 -17.6255,-5.3592 -18.3005,-14.7983 -0.407,-5.6466 3.3655,-11.4549 10.6037,-15.6316 z m -35.5254,-22.1895 h 18.5718 v 51.621 l -10.313,0.003 V 151.895 h -8.2588 z"
       fill="#0e278c"
       id="path8" />
  </g>
  <path
     class="st0"
     d="m 621.4262,137.9858 c -1.704,0 -3.2692,-0.2522 -4.696,-0.752 -1.429,-0.4998 -2.5058,-1.0019 -3.2328,-1.5017 -0.727,-0.502 -1.6403,-1.204 -2.7421,-2.1037 v 3.4555 h -5.2594 V 85.4604 l 5.2594,-2.6285 v 19.6107 c 1.2517,-1.4018 2.8057,-2.528603 4.6596,-3.3806 1.8515,-0.8519 3.7053,-1.2767 5.5592,-1.2767 4.8595,0 8.717,1.7788 11.5728,5.3343 2.8558,3.5577 4.2825,8.4672 4.2825,14.7284 0,6.4612 -1.3518,11.4343 -4.0575,14.9148 -2.7059,3.4828 -6.4885,5.223 -11.3457,5.223 z m -0.827,-4.7345 c 3.5555,0 6.2363,-1.3518 8.0401,-4.0576 1.8039,-2.7058 2.7058,-6.4861 2.7058,-11.3457 0,-4.9594 -0.902,-8.7557 -2.7058,-11.3842 -1.8038,-2.6308 -4.4846,-3.9462 -8.04,-3.9462 -2.1538,0 -4.1212,0.6156 -5.9,1.8424 -1.7767,1.2268 -3.0921,2.5672 -3.944,4.019 v 18.861 c 1.0518,1.8038 2.4808,3.2578 4.2824,4.3596 1.8039,1.1019 3.6577,1.6517 5.5615,1.6517 z m 29.8295,18.4111 5.7114,-15.7803 -14.0514,-37.1949 h 5.3343 l 9.694,27.276 c 0.15,0.502 0.375,1.2017 0.677,2.1037 0.3,0.9019 0.4999,1.5017 0.5999,1.8038 l 1.354,-3.9076 9.844,-27.2759 h 5.6342 l -19.6107,52.9752 z"
     id="by" />
  <path
     class="st0"
     d="m 532.7864,168.0614 c -2.852,0 -5.7072,-0.2873 -8.4945,-0.859 -12.1442,-2.4837 -22.725,-10.0416 -29.0297,-20.7323 l -0.1583,-0.2906 c -3.1426,-6.282 -1.0755,-13.672 4.8028,-17.1988 a 12.5754,12.5754 0 0 1 6.4596,-1.786 c 4.596,0 8.8595,2.503 11.1268,6.534 0.1292,0.2292 0.2778,0.4778 0.4328,0.717 l 1.3533,1.841 1.8183,1.8376 c 2.2641,1.9897 5.1678,3.4074 8.2942,4.0115 4.9934,0.956 10.3419,-0.252 14.2985,-3.2685 4.2537,-3.0942 6.7891,-7.6773 7.18,-12.9355 0.4004,-5.1806 -1.46,-10.3646 -4.9708,-13.8819 0,0 -38.4159,-39.8995 -40.1393,-41.7505 -0.9503,-1.0208 -2.7227,-2.7946 -4.6325,-5.5018 -5.4199,-7.6828 -7.1153,-16.7401 -6.2788,-25.7061 0.4198,-6.1626 2.29,-12.3218 5.41,-17.7672 0,0 1.7598,-2.9763 2.278,-3.7323 2.0345,-2.968 6.0396,-6.806 8.7845,-8.952 2.633,-2.0586 6.1548,-3.8388 7.3723,-4.4282 7.5639,-3.6623 17.203,-5.3606 26.7504,-3.36469999 C 557.2813,3.3858 567.5004,10.7755 573.4918,21.1241 c 1.7312,2.8842 2.206,6.3206 1.3274,9.6539 -0.8882,3.3363 -3.0425,6.1237 -6.0688,7.842 -1.8507,1.1013 -4.0146,1.6923 -6.2271,1.6923 -4.5702,0 -8.911,-2.5515 -11.0525,-6.5016 -2.4514,-4.1244 -6.4402,-6.9539 -11.1815,-7.9035 -4.6446,-0.9365 -9.7671,0.2003 -13.5589,3.0491 -3.6885,2.768 -6.0269,7.125 -6.4145,11.96 -0.3714,4.8383 1.2532,9.444 4.5767,12.9678 l 39.2746,40.4988 c 8.572,8.8497 13.0098,21.0422 12.1798,33.461 -1.1176,12.593 -7.377,24.004 -17.1795,31.3517 -7.6159,5.7169 -16.9856,8.8659 -26.3811,8.8659 m -124.2976,-0.0166 c -23.2935,0 -42.243,-18.9525 -42.243,-42.246 V 42.2466 c 0,-23.2903 18.9495,-42.2397 42.243,-42.2397 23.2903,0 42.2395,18.9494 42.2395,42.2397 v 83.5524 c 0,23.2934 -18.9492,42.246 -42.2395,42.246 m 0,-142.5322 c -9.2308,0 -16.7402,7.5062 -16.7402,16.7338 v 83.5524 c 0,9.3858 7.351,16.737 16.7402,16.737 9.2276,0 16.7369,-7.5094 16.7369,-16.737 V 42.2466 c 0,-9.0727 -7.6644,-16.7338 -16.7369,-16.7338 M 244.281,86.1816 v 69.102 c 0,7.1476 -5.6006,12.7481 -12.7514,12.7481 -7.1508,0 -12.7513,-5.6005 -12.7513,-12.7482 V 33.2575 l 25.5027,52.924 z m 69.1813,48.654 V 12.7514 C 313.4623,5.6006 307.8618,0 300.7109,0 c -7.154,0 -12.7545,5.6006 -12.7545,12.7514 v 69.1538 l 25.506,52.9302 z M 243.2363,7.2348 c 0,0 -0.086,-0.1822 -0.1164,-0.242 -2.1662,-4.2535 -6.7956,-6.915 -11.5434,-6.915 -0.8753,0 -1.7764,0.0902 -2.5678,0.2647 -5.9266,1.1853 -10.0705,6.2885 -10.0705,12.4089 v 2.91 l 70.1291,145.381 c 2.29,4.2504 6.7374,6.9958 11.3238,6.9958 1.0303,0 2.0445,-0.1356 2.9166,-0.3714 5.8524,-1.2372 9.9413,-6.3273 9.9413,-12.3833 v -2.7486 c 0,0 -68.1428,-141.4112 -70.0128,-145.3 m -119.8985,160.81 c -11.2689,0 -21.8724,-4.4021 -29.8565,-12.3896 C 85.4938,147.6647 81.0948,137.0645 81.0948,125.799 V 42.2466 c 0,-11.2656 4.399,-21.8691 12.3864,-29.8532 7.9873,-7.9906 18.5909,-12.3865 29.8565,-12.3865 11.2656,0 21.8659,4.396 29.8533,12.3865 7.9873,7.984 12.3863,18.5876 12.3863,29.8532 v 83.5524 c 0,11.2655 -4.399,21.8657 -12.3863,29.8563 -7.9842,7.9875 -18.5877,12.3896 -29.8533,12.3896 m 0,-142.5321 c -4.4636,0 -8.6657,1.7409 -11.8276,4.9062 -3.1653,3.162 -4.9094,7.364 -4.9094,11.8276 v 83.5524 c 0,4.5474 1.7216,8.7753 4.8415,11.8954 3.12,3.1231 7.3479,4.8415 11.8955,4.8415 4.4636,0 8.6624,-1.7442 11.8276,-4.9062 3.1685,-3.1652 4.9093,-7.3672 4.9093,-11.8307 V 42.2466 c 0,-4.3764 -1.7667,-8.5558 -4.9739,-11.7631 -3.2072,-3.2038 -7.3866,-4.9707 -11.763,-4.9707 M 13.8624,167.9746 C 6.0882,167.9746 0,161.8088 0,153.9411 V 13.9572 L 0.0259,13.6826 C 0.126,6.0733 6.2497,0.0012 13.9626,0.0012 c 6.3336,0 11.7016,4.1116 13.352,10.2257 0.0776,0.2324 0.168,0.5877 0.239,0.985 l 0.0937,0.6007 c 0.1163,0.7558 0.1777,1.502 0.1777,2.219 0,0 0.0226,138.3042 -0.0065,139.8901 0,7.8871 -6.1302,14.0529 -13.956,14.0529"
     id="IONOS" />
</svg>
